<svg width="613" height="736" viewBox="0 0 613 736" fill="none" xmlns="http://www.w3.org/2000/svg">
<path d="M6 95.012C6 53.8506 38.2924 20.4852 78.1372 20.4852H528.084C567.929 20.4852 600.221 53.8506 600.221 95.012C600.221 136.174 567.929 169.539 528.084 169.539H78.1372C38.2924 169.539 6 136.174 6 95.012Z" stroke="#EA9236" stroke-width="12" stroke-miterlimit="10"/>
<path d="M78.1371 273.887C78.1371 232.726 110.442 199.36 150.287 199.36H528.084C567.929 199.36 600.221 232.726 600.221 273.887C600.221 315.049 567.929 348.414 528.084 348.414H150.287C110.442 348.414 78.1371 315.049 78.1371 273.887Z" stroke="#81BD50" stroke-width="12" stroke-miterlimit="10"/>
<path d="M150.287 452.763C150.287 411.601 182.579 378.236 222.424 378.236H528.084C567.929 378.236 600.221 411.601 600.221 452.763C600.221 493.924 567.929 527.289 528.084 527.289H222.424C182.579 527.289 150.287 493.924 150.287 452.763Z" stroke="#398ACC" stroke-width="12" stroke-miterlimit="10"/>
<path d="M222.424 631.638C222.424 590.476 254.717 557.111 294.561 557.111H528.084C567.929 557.111 600.221 590.476 600.221 631.638C600.221 672.799 567.929 706.165 528.084 706.165H294.561C254.717 706.165 222.424 672.799 222.424 631.638Z" stroke="#794296" stroke-width="12" stroke-miterlimit="10"/>
<path d="M483.543 72.0617C483.543 35.2171 511.524 6 545.272 6C579.019 6 607 35.2171 607 72.0617V663.938C607 700.783 579.019 730 545.272 730C511.524 730 483.543 700.783 483.543 663.938V72.0617Z" fill="#EDF4E8" stroke="#333434" stroke-width="12"/>
</svg>
