<svg width="607" height="706" viewBox="0 0 607 706" fill="none" xmlns="http://www.w3.org/2000/svg">
<path d="M0 107.232C0 67.7474 32.993 35.7386 73.6918 35.7386H533.308C574.007 35.7386 607 67.7474 607 107.232C607 146.717 574.007 178.725 533.308 178.725H73.6918C32.9929 178.725 0 146.717 0 107.232Z" fill="#EA9236"/>
<path d="M73.6918 278.816C73.6918 239.331 106.685 207.323 147.384 207.323H533.308C574.007 207.323 607 239.331 607 278.816C607 318.301 574.007 350.31 533.308 350.31H147.384C106.685 350.31 73.6918 318.301 73.6918 278.816Z" fill="#81BD50"/>
<path d="M147.384 450.4C147.384 410.916 180.377 378.907 221.075 378.907H533.308C574.007 378.907 607 410.916 607 450.4C607 489.885 574.007 521.894 533.308 521.894H221.075C180.377 521.894 147.384 489.885 147.384 450.4Z" fill="#398ACC"/>
<path d="M221.075 621.985C221.075 582.5 254.068 550.491 294.767 550.491H533.308C574.007 550.491 607 582.5 607 621.985C607 661.47 574.007 693.478 533.308 693.478H294.767C254.068 693.478 221.075 661.47 221.075 621.985Z" fill="#794296"/>
<path d="M468.71 69.0156C468.71 30.8994 499.609 0 537.726 0C575.842 0 606.741 30.8993 606.741 69.0156V636.984C606.741 675.101 575.842 706 537.726 706C499.609 706 468.71 675.101 468.71 636.984V69.0156Z" fill="#ECECEC"/>
</svg>
